<mxfile host="app.diagrams.net" modified="2023-09-26T08:00:54.562Z" agent="Mozilla/5.0 (Windows NT 10.0; Win64; x64) AppleWebKit/537.36 (KHTML, like Gecko) Chrome/116.0.0.0 Safari/537.36" version="21.8.2" etag="mZSg_x71z2oP21DQLe7x" type="github">
  <diagram name="Page-1" id="ZfDQG-CIREXoi45lKwYc">
    <mxGraphModel>
      <root>
        <mxCell id="0" />
        <mxCell id="1" parent="0" />
      </root>
    </mxGraphModel>
  </diagram>
</mxfile>
